<?xml version="1.0"?>
<svg xmlns="http://www.w3.org/2000/svg" id="Layer_6" enable-background="new 0 0 32 32" height="30px" viewBox="0 0 32 32" width="512px"><g><path d="m14.09 21.34c-1.382-.006-2.5-1.128-2.5-2.51v-5.65c-.008-1.381 1.104-2.507 2.485-2.515.444-.003.881.113 1.265.335l4.9 2.83c1.198.686 1.614 2.213.929 3.411-.221.387-.542.707-.929.929l-4.9 2.83c-.38.221-.811.338-1.25.34zm0-8.54c-.202.005-.365.178-.37.38v5.66c-.001.204.163.371.367.373.068 0 .134-.018.193-.053l4.9-2.83c.177-.103.237-.329.134-.506-.032-.056-.079-.102-.134-.134l-4.9-2.83c-.056-.037-.122-.058-.19-.06z" data-original="#000000" class="active-path" data-old_color="#000000" fill="#69E781"/><path d="m16 32c-3.349.011-6.615-1.039-9.33-3-.453-.38-.511-1.055-.131-1.507.341-.407.93-.501 1.381-.223 2.351 1.699 5.18 2.609 8.08 2.6 7.66-.002 13.868-6.213 13.866-13.874 0-1.473-.235-2.937-.696-4.336-.06-.19-.13-.37-.19-.54-.423-1.139-.999-2.215-1.71-3.2-.31-.503-.154-1.162.349-1.473.451-.278 1.04-.184 1.381.223.83 1.134 1.503 2.375 2 3.69.08.2.16.43.23.65 2.756 8.396-1.816 17.436-10.212 20.192-1.619.532-3.313.801-5.018.798z" data-original="#000000" class="active-path" data-old_color="#000000" fill="#69E781"/><path d="m4.06 26c-.335-.001-.651-.16-.85-.43-3.328-4.439-4.119-10.286-2.09-15.45 1.784-4.476 5.479-7.918 10.07-9.38 2.259-.72 4.652-.922 7-.59 2.175.303 4.262 1.055 6.13 2.21.42.26.84.54 1.22.83.505.307.665.965.358 1.47s-.965.665-1.47.358c-.052-.031-.102-.068-.148-.108-.34-.25-.71-.5-1.08-.73-1.586-.981-3.355-1.628-5.2-1.9h-.05c-2.045-.299-4.131-.128-6.1.5-3.973 1.275-7.17 4.256-8.72 8.13-1.782 4.476-1.103 9.558 1.79 13.41.337.485.217 1.152-.269 1.489-.174.121-.379.187-.591.191z" data-original="#000000" class="active-path" data-old_color="#000000" fill="#69E781"/></g> </svg>
